<svg width="600" height="468" viewBox="0 0 600 468" fill="none" xmlns="http://www.w3.org/2000/svg">
<g clip-path="url(#clip0)">
<path d="M72.6898 131.602C72.6898 131.602 47.5563 305.346 149.815 352.91C252.32 400.474 308.994 306.578 320.575 286.616C332.402 266.654 321.56 193.213 321.56 193.213C321.56 193.213 292.484 190.502 244.435 257.782C196.386 324.815 142.176 261.479 133.552 243.735C124.928 225.991 114.332 187.052 114.332 142.446C114.579 142.446 83.2852 120.265 72.6898 131.602Z" fill="white"/>
<path d="M223.983 278.73L261.191 350.446C261.191 350.446 321.56 307.318 323.778 277.991C325.996 248.664 321.56 193.213 321.56 193.213C321.56 193.213 296.92 196.417 275.975 220.076C255.031 243.735 241.478 262.464 237.289 266.654C233.1 270.844 223.983 278.73 223.983 278.73Z" fill="#D9E7FC"/>
<path d="M72.6898 131.602C72.6898 131.602 47.5563 305.346 149.815 352.91C252.32 400.474 308.994 306.578 320.575 286.616C332.402 266.654 321.56 193.213 321.56 193.213C321.56 193.213 292.484 190.502 244.435 257.782C196.386 324.815 142.176 261.479 133.552 243.735C124.928 225.991 114.332 187.052 114.332 142.446C114.579 142.446 83.2852 120.265 72.6898 131.602Z" stroke="#020106" stroke-miterlimit="10"/>
<path d="M113.84 157.972L122.957 159.204C123.45 157.725 123.942 156.246 123.942 154.521C125.667 140.474 112.854 127.412 95.6057 125.441C78.3573 123.469 62.8337 133.327 61.3552 147.621C61.1088 148.853 61.1088 150.085 61.3552 151.318L70.4723 152.55C70.2259 151.318 70.2259 150.085 70.2259 148.853C71.2115 139.488 82.2998 133.081 94.8665 134.559C107.433 136.038 116.55 144.664 115.565 154.028C115.072 155.261 114.579 156.739 113.84 157.972Z" fill="#FFCC00" stroke="#020106" stroke-miterlimit="10"/>
<path d="M177.166 167.829C176.673 173.744 136.756 174.483 88.2134 169.801C39.6713 164.872 0.739109 156.246 1.23192 150.332C1.72474 144.417 41.6426 143.678 90.1847 148.36C138.973 153.289 177.905 161.915 177.166 167.829Z" fill="#FFCC00" stroke="#020106" stroke-miterlimit="10"/>
<path d="M125.914 142.692C123.45 146.142 119.754 147.374 117.289 145.649C114.825 143.924 114.825 139.735 117.043 136.531C119.507 133.081 123.203 131.848 125.667 133.573C128.131 135.299 128.378 139.242 125.914 142.692Z" fill="white" stroke="#020106" stroke-miterlimit="10"/>
<path d="M78.1107 130.616C79.3428 137.517 77.8643 143.678 74.6611 144.171C71.7042 144.663 68.2545 139.488 67.0225 132.588C65.7904 125.687 67.2689 119.526 70.4721 119.033C73.6754 118.54 77.1251 123.716 78.1107 130.616Z" fill="white" stroke="#020106" stroke-miterlimit="10"/>
<path d="M89.1991 130.123C90.4312 137.024 88.9527 143.185 85.7494 143.678C82.7926 144.171 79.3429 138.995 78.1108 132.095C76.8788 125.194 78.3572 119.033 81.5605 118.54C84.7638 118.047 88.2135 123.223 89.1991 130.123Z" fill="white" stroke="#020106" stroke-miterlimit="10"/>
<path d="M99.5483 129.384C100.78 136.284 99.3018 142.445 96.0986 142.938C93.1417 143.431 89.692 138.256 88.46 131.355C87.2279 124.455 88.7064 118.294 91.9096 117.801C95.1129 117.062 98.5626 122.483 99.5483 129.384Z" fill="white" stroke="#020106" stroke-miterlimit="10"/>
<path d="M110.636 130.123C111.868 137.024 110.39 143.185 107.187 143.678C104.23 144.171 100.78 138.995 99.5481 132.095C98.3161 125.194 99.7945 119.033 102.998 118.54C106.201 117.801 109.651 122.976 110.636 130.123Z" fill="white" stroke="#020106" stroke-miterlimit="10"/>
<path d="M435.647 426.351C440.821 404.91 443.778 381.005 443.778 356.114C443.778 260 401.396 181.877 348.912 181.877C296.427 181.877 254.045 259.754 254.045 356.114C254.045 381.251 257.002 404.91 262.177 426.351H435.647Z" fill="#D9E7FC" stroke="#020106" stroke-miterlimit="10"/>
<path d="M429.24 274.047C429.24 274.047 450.677 285.384 462.751 302.635L527.31 284.398C527.31 284.398 505.872 249.649 469.158 225.99C432.197 202.085 399.918 192.227 390.308 189.763C380.698 187.299 360 178.426 364.189 196.417C368.378 214.408 410.76 264.682 429.24 274.047Z" fill="#D9E7FC"/>
<path d="M420.369 269.858C420.369 269.858 448.706 280.455 462.505 302.389L526.817 283.166C523.86 278.483 520.903 274.047 517.7 269.858C489.363 231.659 430.226 196.664 370.595 184.834" stroke="#020106" stroke-miterlimit="10"/>
<path d="M468.419 315.45L532.731 293.27L531.006 290.066L528.788 286.37L522.382 276.512L459.548 298.199C459.548 298.199 465.215 306.578 468.419 315.45Z" fill="#020106" stroke="#020106" stroke-miterlimit="10"/>
<path d="M389.322 189.024C389.322 212.682 389.322 233.877 389.322 257.289C389.322 260.493 389.322 263.943 389.322 267.147C389.322 273.062 398.686 273.062 398.686 267.147C398.686 244.474 398.686 221.555 398.686 198.882C398.686 195.678 398.686 192.228 398.686 189.024C398.686 183.109 389.322 183.109 389.322 189.024Z" fill="white" stroke="#020106" stroke-miterlimit="10"/>
<path d="M267.844 199.128C274.743 220.322 281.643 241.517 288.542 262.711C289.528 265.668 290.513 268.872 291.499 271.829C293.224 277.498 302.094 274.54 300.37 268.872C293.224 246.938 286.817 227.223 279.671 205.289C278.686 202.332 277.7 199.128 276.715 196.171C274.99 190.749 266.119 193.706 267.844 199.128Z" fill="white" stroke="#020106" stroke-miterlimit="10"/>
<path d="M492.567 426.351C486.16 417.232 475.565 408.36 459.795 399.735C388.583 361.536 405.832 247.678 405.832 247.678H284.353L243.45 426.351H492.567Z" fill="white" stroke="#020106" stroke-miterlimit="10"/>
<path d="M84 426H533" stroke="#020106" stroke-miterlimit="10"/>
<path d="M130.349 358.578C115.565 358.578 103.491 348.72 103.491 336.644C103.491 324.569 115.565 314.711 130.349 314.711C145.133 314.711 157.207 324.569 157.207 336.644C156.961 348.72 145.133 358.578 130.349 358.578ZM130.349 322.351C119.754 322.351 111.129 328.758 111.129 336.891C111.129 344.777 119.754 351.431 130.349 351.431C140.945 351.431 149.569 345.024 149.569 336.891C149.569 328.758 140.945 322.351 130.349 322.351Z" fill="#FFCC00" stroke="#020106" stroke-miterlimit="10"/>
<path d="M265.133 358.578C250.349 358.578 238.275 348.72 238.275 336.644C238.275 324.569 250.349 314.711 265.133 314.711C279.918 314.711 291.992 324.569 291.992 336.644C291.745 348.72 279.671 358.578 265.133 358.578ZM265.133 322.351C254.538 322.351 245.914 328.758 245.914 336.891C245.914 344.777 254.538 351.431 265.133 351.431C275.729 351.431 284.353 345.024 284.353 336.891C284.353 328.758 275.729 322.351 265.133 322.351Z" fill="#FFCC00" stroke="#020106" stroke-miterlimit="10"/>
<path d="M252.813 382.976H140.944C130.349 382.976 121.971 374.351 121.971 364V294.749H272.033V364C272.033 374.597 263.409 382.976 252.813 382.976Z" fill="#FFCC00" stroke="#020106" stroke-miterlimit="10"/>
<path d="M135.77 358.085C138.234 355.128 142.669 354.389 145.626 356.853C148.583 359.318 149.322 363.754 146.858 366.711C144.394 369.668 139.959 370.408 137.002 367.943C134.045 365.725 133.552 361.289 135.77 358.085Z" fill="white"/>
<path d="M157.947 333.441C160.411 330.483 164.846 329.744 167.803 332.208C170.76 334.673 171.499 339.109 169.035 342.066C166.571 345.024 162.135 345.763 159.179 343.299C155.975 340.834 155.482 336.398 157.947 333.441Z" fill="white"/>
<path d="M128.871 314.218C131.335 311.261 135.77 310.521 138.727 312.986C141.684 315.45 142.423 319.886 139.959 322.844C137.495 325.801 133.059 326.54 130.103 324.076C127.146 321.611 126.406 317.175 128.871 314.218Z" fill="white"/>
<path d="M195.647 361.782C198.111 358.825 202.546 358.085 205.503 360.55C208.46 363.014 209.199 367.45 206.735 370.408C204.271 373.365 199.836 374.104 196.879 371.64C193.675 369.422 193.183 364.986 195.647 361.782Z" fill="white"/>
<path d="M226.201 334.427C228.665 331.469 233.101 330.73 236.057 333.194C239.014 335.659 239.754 340.095 237.289 343.052C234.825 346.009 230.39 346.749 227.433 344.284C224.23 342.066 223.737 337.63 226.201 334.427Z" fill="white"/>
<path d="M191.458 317.422C193.922 314.464 198.357 313.725 201.314 316.19C204.271 318.654 205.01 323.09 202.546 326.047C200.082 329.005 195.647 329.744 192.69 327.28C189.487 325.062 188.994 320.626 191.458 317.422Z" fill="white"/>
<path d="M242.957 358.085C245.421 355.128 249.856 354.389 252.813 356.853C255.77 359.318 256.509 363.754 254.045 366.711C251.581 369.668 247.146 370.408 244.189 367.943C241.232 365.725 240.493 361.289 242.957 358.085Z" fill="white"/>
<path d="M253.552 314.218C256.016 311.261 260.452 310.521 263.408 312.986C266.365 315.45 267.105 319.886 264.641 322.844C262.176 325.801 257.741 326.54 254.784 324.076C251.581 321.611 251.088 317.175 253.552 314.218Z" fill="white"/>
<path d="M272.033 294.749C272.033 301.896 238.522 307.564 196.879 307.564C155.483 307.564 121.725 301.896 121.725 294.749C121.725 287.602 155.236 281.934 196.879 281.934C238.522 281.687 272.033 287.602 272.033 294.749Z" fill="white" stroke="#020106" stroke-miterlimit="10"/>
<path d="M133.799 244.72C138.017 244.72 141.437 241.3 141.437 237.081C141.437 232.861 138.017 229.441 133.799 229.441C129.58 229.441 126.16 232.861 126.16 237.081C126.16 241.3 129.58 244.72 133.799 244.72Z" fill="white" stroke="#020106" stroke-miterlimit="10"/>
<path d="M187.023 221.062C191.241 221.062 194.661 217.641 194.661 213.422C194.661 209.202 191.241 205.782 187.023 205.782C182.804 205.782 179.384 209.202 179.384 213.422C179.384 217.641 182.804 221.062 187.023 221.062Z" fill="white" stroke="#020106" stroke-miterlimit="10"/>
<path d="M219.055 228.701C219.055 231.659 216.591 234.123 213.635 234.123C210.678 234.123 208.214 231.659 208.214 228.701C208.214 225.744 210.678 223.28 213.635 223.28C216.591 223.28 219.055 225.744 219.055 228.701Z" fill="white" stroke="#020106" stroke-miterlimit="10"/>
<path d="M167.064 233.877C167.064 236.341 165.092 238.313 162.628 238.313C160.164 238.313 158.193 236.341 158.193 233.877C158.193 231.412 160.164 229.441 162.628 229.441C165.092 229.441 167.064 231.412 167.064 233.877Z" fill="white" stroke="#020106" stroke-miterlimit="10"/>
<path d="M248.132 234.123C248.132 235.848 246.899 237.081 245.175 237.081C243.45 237.081 242.218 235.848 242.218 234.123C242.218 232.398 243.45 231.166 245.175 231.166C246.653 231.166 248.132 232.398 248.132 234.123Z" fill="white" stroke="#020106" stroke-miterlimit="10"/>
<path d="M229.897 194.445C229.897 198.142 226.94 201.1 223.244 201.1C219.548 201.1 216.591 198.142 216.591 194.445C216.591 190.749 219.548 187.791 223.244 187.791C226.94 187.545 229.897 190.749 229.897 194.445Z" stroke="#020106" stroke-miterlimit="10"/>
<path d="M269.322 298.199C283.368 293.517 283.86 265.175 274.004 256.057C264.148 247.185 239.014 246.445 227.68 255.564C226.448 256.55 225.462 257.536 224.476 258.768C220.041 248.664 209.199 238.806 199.343 249.403C194.908 254.085 192.444 258.275 190.965 261.972C184.312 252.36 171.745 242.009 163.368 249.156C158.193 253.592 156.222 259.014 155.729 264.19C151.047 260 144.641 257.536 138.973 261.972C135.031 264.929 132.813 268.872 131.828 272.569C128.871 270.351 125.421 268.872 121.971 271.09C111.869 277.744 121.971 294.749 121.971 294.749L122.71 297.213" fill="white"/>
<path d="M269.322 298.199C283.368 293.517 283.86 265.175 274.004 256.057C264.148 247.185 239.014 246.445 227.68 255.564C226.448 256.55 225.462 257.536 224.476 258.768C220.041 248.664 209.199 238.806 199.343 249.403C194.908 254.085 192.444 258.275 190.965 261.972C184.312 252.36 171.745 242.009 163.368 249.156C158.193 253.592 156.222 259.014 155.729 264.19C151.047 260 144.641 257.536 138.973 261.972C135.031 264.929 132.813 268.872 131.828 272.569C128.871 270.351 125.421 268.872 121.971 271.09C111.869 277.744 121.971 294.749 121.971 294.749L122.71 297.213" stroke="#020106" stroke-miterlimit="10"/>
<path d="M149.569 296.72C149.569 296.72 138.727 286.616 149.569 276.512C160.411 266.654 172.977 285.877 169.774 291.052C166.571 296.227 158.193 280.455 170.267 269.118C182.341 257.782 198.604 278.73 194.415 289.327C190.226 299.924 182.341 291.052 186.776 283.166C189.24 278.976 199.097 262.464 208.214 265.668C217.084 268.872 223.984 289.327 219.056 292.531C213.881 295.735 208.953 280.455 234.086 268.133C259.22 256.057 265.134 284.891 251.828 295.735" stroke="#020106" stroke-miterlimit="10"/>
<path d="M272.033 294.749C272.033 301.896 238.522 307.564 196.879 307.564C155.483 307.564 121.725 301.896 121.725 294.749C121.725 287.602 155.236 281.934 196.879 281.934C238.522 281.687 272.033 287.602 272.033 294.749Z" stroke="#020106" stroke-miterlimit="10"/>
<path d="M230.883 382.976H164.599C160.411 382.976 157.207 386.18 157.207 390.37V393.081C157.207 397.27 160.411 400.474 164.599 400.474H230.883C235.072 400.474 238.275 397.27 238.275 393.081V390.37C238.275 386.427 234.825 382.976 230.883 382.976ZM169.281 394.806C167.556 394.806 166.078 393.327 166.078 391.602C166.078 389.877 167.556 388.398 169.281 388.398C171.006 388.398 172.484 389.877 172.484 391.602C172.484 393.327 171.006 394.806 169.281 394.806ZM186.776 395.052C185.051 395.052 183.573 393.574 183.573 391.848C183.573 390.123 185.051 388.645 186.776 388.645C188.501 388.645 189.979 390.123 189.979 391.848C189.979 393.574 188.501 395.052 186.776 395.052ZM204.025 395.052C202.3 395.052 200.821 393.574 200.821 391.848C200.821 390.123 202.3 388.645 204.025 388.645C205.749 388.645 207.228 390.123 207.228 391.848C207.228 393.574 205.996 395.052 204.025 395.052ZM221.519 395.052C219.795 395.052 218.316 393.574 218.316 391.848C218.316 390.123 219.795 388.645 221.519 388.645C223.244 388.645 224.723 390.123 224.723 391.848C224.723 393.574 223.244 395.052 221.519 395.052Z" fill="#020106"/>
<path d="M264.148 439.166H134.538C127.639 439.166 121.971 433.498 121.971 426.597V405.896C121.971 398.995 127.639 393.327 134.538 393.327H264.148C271.047 393.327 276.715 398.995 276.715 405.896V426.597C276.961 433.498 271.294 439.166 264.148 439.166Z" fill="#D9E7FC" stroke="#020106" stroke-miterlimit="10"/>
<path d="M263.408 414.521C263.408 420.436 258.727 425.119 252.813 425.119C246.899 425.119 242.218 420.436 242.218 414.521C242.218 408.607 246.899 403.924 252.813 403.924C258.727 403.924 263.408 408.607 263.408 414.521Z" fill="white" stroke="#020106" stroke-miterlimit="10"/>
<path d="M258.48 414.521C258.48 417.725 255.77 420.436 252.567 420.436C249.363 420.436 246.653 417.725 246.653 414.521C246.653 411.318 249.363 408.607 252.567 408.607C256.016 408.607 258.48 411.318 258.48 414.521Z" fill="white" stroke="#020106" stroke-miterlimit="10"/>
<path d="M139.466 409.839C142.188 409.839 144.394 407.632 144.394 404.91C144.394 402.188 142.188 399.981 139.466 399.981C136.744 399.981 134.538 402.188 134.538 404.91C134.538 407.632 136.744 409.839 139.466 409.839Z" fill="#FFCC00" stroke="#020106" stroke-miterlimit="10"/>
<path d="M316.386 189.024C316.386 197.896 328.706 205.043 343.984 205.043C359.261 205.043 371.581 197.896 371.581 189.024C371.581 180.152 359.261 173.005 343.984 173.005C328.706 173.005 316.386 180.152 316.386 189.024Z" fill="#020106" stroke="#1C191B" stroke-miterlimit="10"/>
<path d="M309.979 52.9858H334.127C350.144 52.9858 363.45 68.019 363.45 86.2559V123.716C363.45 124.701 363.45 125.934 363.203 126.919C363.45 127.905 363.696 129.137 363.696 130.37V153.289V154.521V177.441C363.696 185.82 357.043 192.474 348.665 192.474H339.055C330.678 192.474 324.025 185.82 324.025 177.441V157.232H309.979C293.963 157.232 280.657 142.199 280.657 123.962V86.2559C280.657 68.019 293.963 52.9858 309.979 52.9858Z" fill="white" stroke="black" stroke-miterlimit="10"/>
<path d="M348.172 118.54C348.172 125.934 342.012 132.095 334.62 132.095C327.228 132.095 321.068 125.934 321.068 118.54C321.068 111.147 327.228 104.986 334.62 104.986C342.012 104.986 348.172 111.147 348.172 118.54Z" fill="#D9E7FC"/>
<path d="M284.353 109.422C283.614 109.422 282.628 109.422 281.889 109.668V123.716C281.889 125.934 281.889 127.905 282.382 129.877C282.875 129.877 283.614 130.123 284.353 130.123C290.02 130.123 294.702 125.441 294.702 119.773C294.702 114.104 290.02 109.422 284.353 109.422Z" fill="#D9E7FC"/>
<path d="M357.043 111.64L352.608 82.3128C352.608 82.3128 271.294 92.4171 244.928 52.9858C218.563 13.5545 246.16 -2.21801 259.712 0.24645C273.018 2.46446 288.788 21.6872 288.788 21.6872C288.788 21.6872 276.222 4.68247 288.788 1.97157C301.355 -0.739333 314.908 12.3223 322.3 25.6303C322.3 25.6303 375.77 20.7014 394.004 52.9858C411.992 85.2702 398.193 109.175 364.928 142.692V122.73L357.043 111.64Z" fill="#FFCC00"/>
<path d="M394.004 112.379C394.004 122.976 385.38 131.355 374.784 131.355C364.189 131.355 355.564 122.73 355.564 112.379C355.564 101.782 364.189 93.4029 374.784 93.4029C385.38 93.1564 394.004 101.782 394.004 112.379Z" stroke="black" stroke-width="2" stroke-miterlimit="10"/>
<path d="M279.425 125.441C279.425 125.441 287.556 125.934 291.992 119.773C296.427 113.611 312.444 108.19 322.546 117.801C332.402 127.412 342.505 128.152 346.94 125.194C351.376 122.237 352.854 113.118 354.333 96.3602C355.811 79.6019 363.696 78.1232 367.885 79.109C371.828 80.0948 358.522 136.531 355.811 142.199C350.39 154.275 344.476 158.957 327.967 160.682C311.458 162.408 296.427 160.929 286.324 147.621C279.671 138.995 279.425 125.441 279.425 125.441Z" fill="#FFCC00"/>
<path d="M329.199 98.5782C329.199 101.536 326.735 104 323.778 104C320.821 104 318.357 101.536 318.357 98.5782C318.357 95.6208 320.821 93.1564 323.778 93.1564C326.735 93.1564 329.199 95.6208 329.199 98.5782Z" fill="#0C0C0C"/>
<path d="M293.47 97.8388C293.47 100.303 291.499 102.521 288.788 102.521C286.324 102.521 284.107 100.55 284.107 97.8388C284.107 95.3744 286.078 93.1564 288.788 93.1564C291.499 93.1564 293.47 95.1279 293.47 97.8388Z" fill="#0C0C0C"/>
<path d="M297.905 122.976C297.905 122.976 300.616 130.863 306.53 131.602C312.443 132.095 316.879 125.687 317.125 120.758L297.905 122.976Z" fill="#FFFDFD"/>
<path d="M296.427 123.223C297.413 126.18 299.137 129.137 301.848 130.863C306.283 134.066 311.704 132.588 315.154 128.645C317.125 126.427 318.357 123.469 318.603 120.512C318.603 119.772 317.864 119.033 317.125 119.033C311.458 119.772 306.037 120.512 300.369 121.005C299.63 121.005 298.891 121.251 297.905 121.251C297.166 121.251 296.427 121.744 296.427 122.73C296.427 123.469 297.166 124.209 297.905 124.209C303.573 123.469 308.994 122.73 314.661 122.237C315.4 122.237 316.139 121.991 317.125 121.991C316.632 121.498 316.139 121.005 315.647 120.512C315.4 124.455 312.443 128.891 308.501 129.877C304.805 130.863 301.848 127.905 300.369 124.948C300.123 124.209 299.63 123.716 299.384 122.976C299.384 122.73 299.384 123.223 299.384 122.976V122.73V122.483C298.645 120.758 295.934 121.498 296.427 123.223Z" fill="#0C0C0C"/>
<path d="M304.805 93.1564L306.037 111.64L297.166 106.218L304.805 93.1564Z" fill="#9789F0"/>
<path d="M394.004 112.379C394.004 122.976 385.38 131.355 374.784 131.355C364.189 131.355 355.564 122.73 355.564 112.379C355.564 101.782 364.189 93.4029 374.784 93.4029C385.38 93.1564 394.004 101.782 394.004 112.379Z" fill="white"/>
<path d="M365.914 114.844C365.914 114.351 365.914 114.104 365.914 113.611C365.914 113.365 365.914 113.118 365.914 113.118V112.872C365.914 112.379 365.914 113.365 365.914 112.872C365.914 112.379 366.16 111.886 366.16 111.393C366.16 111.147 366.406 110.9 366.406 110.654C366.406 110.408 366.406 110.408 366.653 110.161V109.915C366.899 109.668 366.653 109.915 366.653 109.915C366.653 109.915 366.899 109.175 367.146 109.175C367.392 108.929 367.392 108.436 367.638 108.19C367.638 108.19 368.131 107.697 367.638 108.19C367.638 107.943 367.885 107.943 367.885 107.697C368.131 107.45 368.378 107.204 368.624 106.957C368.624 106.957 369.117 106.464 368.871 106.711C369.117 106.711 369.117 106.464 369.363 106.464C369.61 106.218 370.103 105.972 370.349 105.972C370.349 105.972 370.842 105.725 370.349 105.972C370.103 105.972 370.595 105.972 370.595 105.972C370.842 105.972 371.088 105.725 371.335 105.725C371.581 105.725 371.827 105.479 372.074 105.479H372.32C372.32 105.479 373.059 105.479 372.567 105.479C373.799 105.232 375.031 105.232 376.263 105.479C377.248 105.479 377.988 104.739 377.988 103.754C377.988 102.768 377.248 102.275 376.263 102.028C372.32 101.536 367.885 102.521 365.174 105.725C363.45 107.943 362.464 110.654 362.218 113.611C362.218 114.104 362.218 114.844 362.218 115.336C362.218 116.322 362.957 117.062 363.942 117.062C365.174 116.569 365.914 115.829 365.914 114.844Z" fill="#020202"/>
<path d="M531.499 291.299L468.419 312C469.404 316.436 470.39 327.28 469.651 332.948C464.723 375.583 415.195 384.701 407.556 385.441C399.918 386.18 334.373 383.469 310.718 401.213C287.063 419.204 277.207 438.427 283.367 442.863C287.063 445.573 292.484 440.398 296.18 435.716C292.238 441.63 287.556 450.256 290.513 453.953C293.47 457.896 300.369 450.256 305.051 444.095C301.109 450.256 296.92 458.882 301.601 461.592C306.283 464.303 311.704 456.171 315.154 449.763C312.443 456.417 309.979 465.536 315.893 466.521C324.764 468 320.082 431.28 381.93 435.716C443.778 440.152 522.628 455.185 544.065 408.114C560.821 372.379 553.429 325.801 531.499 291.299Z" fill="white"/>
<path d="M382.176 435.716C444.024 440.152 522.875 455.185 544.312 408.114C562.792 367.697 550.718 323.09 529.035 287.109L465.708 308.796C468.911 315.943 470.39 323.829 469.404 332.948C464.476 375.583 414.948 384.701 407.31 385.441C399.671 386.18 334.127 383.469 310.472 401.213C286.817 419.204 276.961 438.427 283.121 442.863C286.817 445.573 292.238 440.398 295.934 435.716C291.992 441.63 287.31 450.256 290.267 453.953C293.224 457.896 300.123 450.256 304.805 444.095C300.862 450.256 296.673 458.882 301.355 461.592C306.037 464.303 311.458 456.171 314.907 449.763C312.197 456.417 309.733 465.536 315.647 466.521C325.01 468.246 320.575 431.28 382.176 435.716Z" stroke="#020106" stroke-miterlimit="10"/>
<g clip-path="url(#clip1)">
<path d="M293.45 313.852C293.248 313.851 293.052 313.848 292.826 313.846C290.726 313.824 283.953 312.966 284.028 302.857C284.036 301.894 284.54 300.928 285.413 300.207C286.574 299.248 288.166 298.85 289.781 299.117C291.573 299.413 292.779 300.197 293.473 300.8C294.176 300.208 295.394 299.441 297.19 299.172C298.808 298.929 300.395 299.351 301.542 300.327C302.403 301.061 302.893 302.034 302.886 302.997C302.811 313.087 296.032 313.859 293.956 313.854C293.772 313.854 293.609 313.853 293.45 313.852ZM288.851 300.524C287.924 300.517 287.036 300.807 286.384 301.345C285.851 301.786 285.543 302.341 285.539 302.868C285.475 311.364 290.61 312.336 292.82 312.36C293.241 312.364 293.545 312.367 293.959 312.368C296.168 312.373 301.312 311.467 301.376 302.986C301.38 302.459 301.08 301.899 300.553 301.451C299.753 300.77 298.58 300.468 297.418 300.641C295.517 300.926 294.436 301.907 294.095 302.269C293.955 302.478 293.716 302.603 293.46 302.601C293.459 302.601 293.458 302.601 293.458 302.601C293.202 302.599 292.966 302.47 292.829 302.259C292.493 301.892 291.428 300.895 289.532 300.582C289.304 300.545 289.077 300.526 288.851 300.524Z" fill="#FFCC00"/>
<path d="M295.1 309.025C294.477 309.02 293.874 308.776 293.385 308.331C292.712 308.925 291.834 309.148 290.988 308.9C289.896 308.58 289.167 307.563 289.176 306.37C289.19 304.559 291.171 303.06 292.355 302.165C292.605 301.975 292.842 301.797 292.939 301.701C293.071 301.571 293.249 301.499 293.442 301.506C293.627 301.508 293.803 301.58 293.93 301.708C293.93 301.708 293.931 301.709 293.931 301.709C294.027 301.806 294.26 301.988 294.507 302.181C295.678 303.094 297.637 304.622 297.623 306.433C297.615 307.626 296.871 308.632 295.774 308.936C295.549 308.998 295.323 309.027 295.1 309.025ZM293.425 302.961C293.339 303.027 293.245 303.098 293.145 303.174C292.213 303.879 290.48 305.19 290.471 306.379C290.465 307.146 290.945 307.558 291.357 307.679C291.905 307.838 292.459 307.59 292.838 307.013C292.954 306.831 293.158 306.714 293.377 306.71C293.606 306.697 293.823 306.814 293.943 307.005C294.321 307.603 294.871 307.862 295.423 307.71C295.837 307.595 296.323 307.189 296.329 306.423C296.337 305.234 294.623 303.897 293.703 303.178C293.603 303.101 293.51 303.029 293.425 302.961Z" fill="#FFCC00"/>
<path d="M315.013 300.742C314.248 300.307 313.374 300.086 312.392 300.079C311.397 300.071 310.513 300.28 309.742 300.703C308.971 301.126 308.362 301.717 307.914 302.474C307.466 303.232 307.238 304.107 307.231 305.098C307.223 306.077 307.426 306.948 307.838 307.713C308.25 308.477 308.823 309.077 309.557 309.511C310.291 309.946 311.137 310.166 312.095 310.173C312.943 310.18 313.7 309.983 314.366 309.583C315.003 309.201 315.508 308.67 315.889 307.999L315.883 308.86C315.877 309.646 315.715 310.327 315.398 310.905C315.08 311.483 314.653 311.924 314.116 312.228C313.58 312.532 312.986 312.682 312.335 312.677C311.622 312.671 310.996 312.54 310.458 312.282C309.919 312.024 309.479 311.682 309.138 311.257C309.017 311.087 308.852 310.983 308.643 310.945C308.434 310.907 308.238 310.948 308.052 311.068C307.879 311.175 307.78 311.322 307.754 311.51C307.728 311.697 307.782 311.875 307.916 312.045C308.415 312.677 309.035 313.171 309.776 313.528C310.516 313.884 311.353 314.065 312.287 314.072C313.282 314.08 314.162 313.856 314.928 313.403C315.693 312.949 316.299 312.335 316.748 311.559C317.196 310.782 317.423 309.911 317.431 308.944L317.459 305.174C317.454 304.183 317.236 303.305 316.806 302.541C316.375 301.776 315.777 301.177 315.013 300.742ZM315.3 306.908C314.994 307.456 314.57 307.882 314.028 308.186C313.485 308.49 313.015 308.784 312.327 308.779C311.626 308.774 311.007 308.615 310.469 308.303C309.93 307.991 309.51 307.559 309.207 307.007C308.904 306.455 308.755 305.822 308.76 305.109C308.766 304.396 308.924 303.763 309.235 303.209C309.546 302.656 309.973 302.227 310.517 301.923C311.059 301.619 311.681 301.469 312.381 301.475C313.069 301.48 313.682 301.638 314.221 301.951C314.759 302.263 315.176 302.698 315.473 303.256C315.77 303.814 315.771 304.304 315.765 305.017C315.76 305.731 315.605 306.361 315.3 306.908ZM327.24 300.815C326.555 300.393 325.74 300.179 324.794 300.172C323.836 300.164 322.989 300.376 322.255 300.805C321.521 301.235 320.942 301.826 320.519 302.578C320.095 303.33 319.88 304.201 319.873 305.192C319.865 306.171 320.08 307.043 320.517 307.807C320.953 308.572 321.557 309.172 322.328 309.606C323.099 310.041 323.988 310.262 324.995 310.27C325.572 310.274 326.172 310.17 326.794 309.957C327.416 309.744 327.937 309.47 328.358 309.135C328.518 309.003 328.596 308.844 328.592 308.656C328.587 308.469 328.499 308.296 328.328 308.137C328.194 308.028 328.032 307.975 327.841 307.98C327.651 307.985 327.481 308.047 327.333 308.166C327.073 308.382 326.725 308.561 326.288 308.702C325.85 308.844 325.423 308.913 325.005 308.91C324.28 308.905 323.64 308.74 323.083 308.416C322.526 308.091 322.09 307.653 321.775 307.101C321.537 306.683 321.391 306.22 321.336 305.711L328.641 305.765C328.85 305.767 329.022 305.705 329.158 305.579C329.294 305.453 329.363 305.287 329.365 305.082C329.372 304.139 329.191 303.298 328.822 302.558C328.452 301.818 327.925 301.237 327.24 300.815ZM321.378 304.46C321.447 304.043 321.566 303.655 321.748 303.303C322.035 302.749 322.438 302.314 322.956 301.998C323.474 301.681 324.084 301.526 324.784 301.531C325.447 301.536 326.014 301.691 326.485 301.997C326.956 302.303 327.318 302.722 327.572 303.256C327.755 303.639 327.868 304.058 327.917 304.509L321.378 304.46ZM336.492 300.875C336.419 300.693 336.316 300.56 336.181 300.474C336.047 300.389 335.899 300.345 335.74 300.344C335.408 300.341 335.161 300.515 334.999 300.864L330.974 309.227C330.874 309.419 330.864 309.595 330.943 309.752C331.021 309.91 331.152 310.038 331.336 310.136C331.544 310.234 331.743 310.254 331.934 310.195C332.125 310.136 332.27 310.01 332.37 309.817L335.764 302.647L338.986 309.885C339.095 310.079 339.235 310.207 339.407 310.269C339.579 310.33 339.775 310.314 339.997 310.219C340.182 310.123 340.312 309.994 340.387 309.832C340.462 309.669 340.451 309.491 340.354 309.297L336.492 300.875ZM351.036 300.458C350.802 300.456 350.611 300.525 350.463 300.662C350.314 300.8 350.239 300.984 350.238 301.213L350.198 306.488C350.195 306.972 350.056 307.406 349.783 307.79C349.51 308.175 349.142 308.474 348.68 308.688C348.217 308.902 347.697 309.007 347.12 309.003C346.518 308.998 345.978 308.88 345.501 308.646C345.024 308.413 344.648 308.06 344.375 307.587C344.103 307.113 343.969 306.514 343.974 305.789L344.009 301.167C344.01 300.949 343.938 300.768 343.792 300.622C343.645 300.475 343.455 300.401 343.222 300.4C343.001 300.398 342.816 300.469 342.667 300.613C342.519 300.757 342.444 300.938 342.442 301.155L342.408 305.777C342.4 306.781 342.59 307.628 342.979 308.319C343.366 309.011 343.9 309.538 344.579 309.899C345.259 310.261 346.028 310.445 346.888 310.451C347.699 310.457 348.431 310.288 349.085 309.942C349.508 309.719 349.868 309.437 350.179 309.109L350.175 309.588C350.173 309.817 350.246 310.005 350.392 310.151C350.538 310.297 350.728 310.371 350.962 310.373C351.195 310.375 351.386 310.304 351.535 310.16C351.683 310.016 351.758 309.829 351.76 309.599L351.822 301.225C351.824 300.996 351.752 300.811 351.605 300.671C351.459 300.531 351.269 300.46 351.036 300.458ZM361.388 301.07C360.703 300.648 359.888 300.434 358.942 300.426C357.984 300.419 357.137 300.631 356.403 301.06C355.669 301.49 355.09 302.081 354.667 302.833C354.243 303.585 354.028 304.456 354.021 305.447C354.013 306.426 354.228 307.298 354.665 308.062C355.101 308.827 355.705 309.427 356.476 309.861C357.246 310.296 358.135 310.517 359.143 310.525C359.72 310.529 360.32 310.425 360.942 310.212C361.564 309.999 362.085 309.725 362.506 309.39C362.666 309.258 362.744 309.099 362.74 308.911C362.735 308.724 362.647 308.551 362.476 308.392C362.342 308.283 362.179 308.23 361.989 308.235C361.798 308.24 361.629 308.302 361.481 308.421C361.221 308.637 360.873 308.816 360.436 308.957C359.998 309.099 359.571 309.168 359.153 309.165C358.428 309.16 357.787 308.995 357.231 308.671C356.674 308.346 356.238 307.908 355.923 307.356C355.685 306.938 355.539 306.475 355.483 305.966L362.789 306.02C362.998 306.022 363.17 305.96 363.306 305.834C363.442 305.708 363.511 305.542 363.513 305.337C363.52 304.394 363.339 303.553 362.969 302.813C362.6 302.073 362.073 301.492 361.388 301.07ZM355.526 304.715C355.595 304.298 355.714 303.91 355.896 303.558C356.183 303.004 356.585 302.569 357.104 302.253C357.622 301.936 358.232 301.781 358.932 301.786C359.595 301.791 360.162 301.946 360.633 302.252C361.104 302.558 361.466 302.977 361.72 303.511C361.903 303.894 362.016 304.313 362.065 304.764L355.526 304.715ZM373.339 301.178C372.574 300.743 371.701 300.522 370.718 300.514C369.723 300.507 368.839 300.715 368.069 301.138C367.297 301.561 366.688 302.152 366.24 302.91C365.792 303.668 365.564 304.543 365.557 305.533C365.55 306.512 365.752 307.384 366.164 308.148C366.576 308.913 367.149 309.512 367.883 309.946C368.617 310.381 369.463 310.602 370.421 310.609C371.269 310.615 372.026 310.419 372.693 310.019C373.329 309.637 373.835 309.106 374.216 308.434L374.209 309.296C374.203 310.081 374.042 310.763 373.724 311.341C373.406 311.918 372.979 312.359 372.442 312.663C371.906 312.967 371.312 313.117 370.661 313.112C369.948 313.107 369.322 312.975 368.784 312.718C368.245 312.46 367.805 312.118 367.464 311.693C367.343 311.522 367.178 311.419 366.969 311.381C366.76 311.343 366.564 311.384 366.379 311.503C366.206 311.611 366.106 311.758 366.08 311.945C366.054 312.132 366.108 312.311 366.242 312.481C366.741 313.113 367.361 313.607 368.102 313.963C368.842 314.319 369.68 314.501 370.613 314.508C371.608 314.515 372.488 314.292 373.254 313.839C374.019 313.385 374.626 312.77 375.074 311.994C375.522 311.218 375.749 310.347 375.757 309.38L375.785 305.61C375.78 304.619 375.562 303.741 375.132 302.976C374.701 302.212 374.104 301.612 373.339 301.178ZM373.771 307.489C373.466 308.037 373.042 308.462 372.499 308.766C371.956 309.071 371.341 309.22 370.653 309.215C369.953 309.21 369.333 309.051 368.795 308.739C368.257 308.427 367.836 307.995 367.533 307.442C367.23 306.89 367.081 306.258 367.086 305.545C367.092 304.832 367.25 304.199 367.561 303.645C367.873 303.092 368.3 302.663 368.843 302.358C369.385 302.054 370.007 301.905 370.707 301.91C371.395 301.915 372.008 302.074 372.547 302.386C373.085 302.698 373.502 303.134 373.799 303.692C374.096 304.25 374.242 304.885 374.237 305.598C374.231 306.311 374.076 306.941 373.771 307.489ZM387.014 301.153C386.96 300.965 386.841 300.828 386.658 300.742C386.449 300.656 386.25 300.649 386.059 300.72C385.868 300.791 385.729 300.923 385.641 301.115L382.444 308.131L379.007 301.084C378.91 300.878 378.776 300.744 378.604 300.682C378.433 300.62 378.242 300.631 378.033 300.714C377.835 300.809 377.699 300.944 377.624 301.119C377.549 301.294 377.56 301.478 377.657 301.672L381.685 309.798L381.138 310.997C380.813 311.707 380.462 312.248 380.085 312.62C379.707 312.992 379.322 313.182 378.929 313.192C378.769 313.191 378.625 313.171 378.496 313.134C378.367 313.097 378.236 313.035 378.101 312.95C377.893 312.84 377.694 312.796 377.503 312.819C377.312 312.841 377.155 312.937 377.031 313.105C376.882 313.285 376.841 313.478 376.907 313.684C376.973 313.89 377.116 314.06 377.336 314.195C377.581 314.33 377.829 314.434 378.08 314.509C378.332 314.583 378.58 314.615 378.826 314.605C379.551 314.61 380.229 314.337 380.859 313.786C381.49 313.235 382.012 312.508 382.424 311.605L386.945 301.741C387.045 301.537 387.068 301.341 387.014 301.153Z" fill="#FFCC00"/>
</g>
</g>
<defs>
<clipPath id="clip0">
<rect width="600" height="468" fill="white"/>
</clipPath>
<clipPath id="clip1">
<rect x="267" y="300" width="163" height="29" fill="white"/>
</clipPath>
</defs>
</svg>
