<svg width="159" height="23" viewBox="0 0 159 23" fill="none" xmlns="http://www.w3.org/2000/svg">
<g clip-path="url(#clip0)">
<path d="M14.6708 22.8182C14.3587 22.8182 14.0561 22.817 13.7068 22.8158C10.466 22.8058 0 21.5597 0 5.95344C0 4.4669 0.767612 2.97016 2.10621 1.84746C3.88747 0.353315 6.34119 -0.278145 8.8372 0.114692C11.6063 0.550333 13.477 1.74745 14.5558 2.67033C15.6341 1.74765 17.5048 0.550534 20.2743 0.114692C22.7697 -0.279545 25.224 0.353315 27.0053 1.84746C28.3439 2.97036 29.1115 4.4669 29.1115 5.95344C29.1115 21.5297 18.6567 22.7982 15.4523 22.8158C15.1678 22.8174 14.9163 22.8182 14.6708 22.8182ZM7.41768 2.2975C5.98677 2.2975 4.61848 2.75494 3.61927 3.59302C2.80123 4.27929 2.33191 5.13957 2.33191 5.95344C2.33191 19.0699 10.2689 20.5112 13.6814 20.522C14.3307 20.524 14.8002 20.5252 15.4393 20.522C18.8489 20.5032 26.7796 19.0455 26.7796 5.95344C26.7796 5.13957 26.3103 4.27929 25.4923 3.59302C24.2498 2.55092 22.4358 2.09828 20.6428 2.37971C17.7116 2.84115 16.055 4.36769 15.5328 4.93015C15.3183 5.25418 14.9508 5.451 14.5558 5.451C14.5547 5.451 14.5537 5.451 14.5525 5.451C14.1584 5.45 13.7926 5.25318 13.5787 4.93015C13.0555 4.36649 11.3993 2.84095 8.46875 2.37971C8.11758 2.3245 7.7658 2.2975 7.41768 2.2975Z" fill="white"/>
<path d="M17.1609 15.3479C16.1993 15.3479 15.2657 14.977 14.5063 14.2957C13.4743 15.2214 12.1213 15.5747 10.8126 15.2018C9.12219 14.721 7.98633 13.1596 7.98633 11.3171C7.98633 8.5218 11.0277 6.18518 12.8448 4.78925C13.2287 4.49422 13.5914 4.2156 13.7401 4.06718C13.9434 3.86476 14.2171 3.75095 14.5148 3.75975C14.8007 3.76035 15.0734 3.87056 15.2708 4.06678C15.2712 4.06698 15.2714 4.06738 15.2714 4.06738C15.4209 4.2162 15.783 4.49442 16.1667 4.78905C17.9842 6.18518 21.0264 8.5218 21.0264 11.3171C21.0264 13.1596 19.8905 14.721 18.2001 15.2018C17.8545 15.3002 17.5057 15.3479 17.1609 15.3479ZM14.5056 6.00617C14.3737 6.10958 14.2297 6.22019 14.0752 6.3388C12.6457 7.4369 9.98517 9.48089 9.98517 11.3171C9.98517 12.5 10.7302 13.1316 11.3681 13.3133C12.2158 13.5529 13.0672 13.1636 13.6455 12.2672C13.823 11.9863 14.1372 11.8019 14.4745 11.7935C14.8277 11.7719 15.1645 11.9491 15.3521 12.2436C15.9418 13.162 16.7936 13.5553 17.6446 13.3133C18.2825 13.1316 19.0275 12.5 19.0275 11.3171C19.0275 9.48129 16.3662 7.4371 14.9365 6.3388C14.7818 6.22019 14.6378 6.10958 14.5056 6.00617Z" fill="white"/>
<path d="M47.8045 2.33221C46.619 1.67027 45.2677 1.33887 43.7506 1.33887C42.2143 1.33887 40.8532 1.67027 39.6682 2.33221C38.4826 2.9946 37.5487 3.91319 36.8659 5.0884C36.1832 6.26361 35.8418 7.61636 35.8418 9.14571C35.8418 10.6567 36.1641 11.9998 36.8091 13.1751C37.4536 14.3503 38.3453 15.2693 39.4833 15.9312C40.6212 16.5936 41.9299 16.9246 43.4092 16.9246C44.7178 16.9246 45.8842 16.6124 46.9084 15.9872C47.8872 15.3901 48.6607 14.5647 49.2412 13.5243V14.8539C49.2412 16.0668 48.9994 17.1204 48.5158 18.0158C48.0321 18.9113 47.3778 19.5968 46.5528 20.0725C45.7278 20.5482 44.8125 20.786 43.8075 20.786C42.7073 20.786 41.74 20.5902 40.9057 20.1984C40.0709 19.8067 39.3881 19.2842 38.8574 18.6315C38.6676 18.37 38.4115 18.2117 38.0892 18.1558C37.7665 18.0998 37.4634 18.1649 37.1789 18.3516C36.9131 18.5195 36.7615 18.7477 36.7237 19.0372C36.6855 19.3262 36.7708 19.6012 36.9797 19.8626C37.7572 20.8324 38.7196 21.5879 39.8673 22.1291C41.0146 22.67 42.309 22.9406 43.7506 22.9406C45.2868 22.9406 46.6426 22.586 47.8188 21.8773C48.9945 21.1681 49.924 20.2124 50.6067 19.0092C51.2895 17.806 51.6309 16.4585 51.6309 14.9659V9.14571C51.6118 7.61636 51.2655 6.26361 50.5925 5.0884C49.9191 3.91319 48.9896 2.9946 47.8045 2.33221ZM48.318 11.8473C47.853 12.6963 47.2036 13.3583 46.3693 13.834C45.5345 14.3096 44.8125 14.77 43.7506 14.77C42.6695 14.77 41.7116 14.5322 40.8772 14.0565C40.0424 13.5808 39.3881 12.9188 38.9143 12.0698C38.44 11.2212 38.203 10.2466 38.203 9.14571C38.203 8.04525 38.44 7.06591 38.9143 6.20765C39.3881 5.34985 40.0424 4.68266 40.8772 4.20699C41.7116 3.73129 42.6695 3.49345 43.7506 3.49345C44.8125 3.49345 45.7607 3.73129 46.5955 4.20699C47.4298 4.68266 48.0793 5.34985 48.5442 6.20765C49.0087 7.06591 49.015 7.82273 49.015 8.92321C49.015 10.0241 48.7825 10.9987 48.318 11.8473ZM66.6802 2.30423C65.6178 1.66067 64.3568 1.33887 62.8965 1.33887C61.4172 1.33887 60.113 1.67465 58.9848 2.34621C57.8562 3.01778 56.9694 3.93679 56.3248 5.1024C55.6798 6.26843 55.3576 7.61636 55.3576 9.14571C55.3576 10.6567 55.699 11.9998 56.3817 13.1751C57.0645 14.3503 58.0033 15.2693 59.1982 15.9312C60.393 16.5936 61.7679 16.9246 63.3232 16.9246C64.2145 16.9246 65.1391 16.7567 66.097 16.4209C67.0545 16.0851 67.8559 15.6562 68.5009 15.1337C68.7472 14.9287 68.8659 14.6817 68.8566 14.3923C68.8468 14.1033 68.7094 13.8374 68.444 13.5948C68.2351 13.4269 67.984 13.3478 67.6901 13.3569C67.3959 13.3666 67.1354 13.4645 66.9078 13.6507C66.5095 13.9865 65.9734 14.2663 65.3004 14.4902C64.627 14.714 63.9678 14.826 63.3232 14.826C62.204 14.826 61.2131 14.5789 60.3503 14.0844C59.4871 13.5904 58.8092 12.9188 58.3163 12.0698C57.9434 11.4284 57.7126 10.7146 57.6217 9.9292H68.8992C69.2215 9.9292 69.4869 9.83127 69.6958 9.6354C69.9043 9.43953 70.0087 9.18331 70.0087 8.8659C70.0087 7.41087 69.7194 6.11452 69.141 4.97647C68.5623 3.83885 67.7422 2.94782 66.6802 2.30423ZM57.6732 7.99847C57.7741 7.35439 57.9532 6.75371 58.2309 6.20765C58.667 5.34985 59.2835 4.67348 60.0801 4.17901C60.8766 3.68494 61.8155 3.43749 62.8965 3.43749C63.9207 3.43749 64.7977 3.67096 65.528 4.13703C66.2579 4.60353 66.8224 5.24711 67.2207 6.06776C67.507 6.6578 67.6862 7.30278 67.7668 7.99847H57.6732ZM80.9615 2.29026C80.8477 2.01043 80.6863 1.80539 80.4778 1.67465C80.2689 1.54436 80.0413 1.47878 79.7951 1.47878C79.283 1.47878 78.9034 1.74943 78.6571 2.29026L72.5406 15.2457C72.3886 15.5443 72.3744 15.8149 72.4979 16.0572C72.6211 16.2998 72.8251 16.4957 73.1096 16.6448C73.4319 16.7939 73.7399 16.8218 74.0342 16.7287C74.328 16.6356 74.5507 16.4397 74.7027 16.1411L79.8589 5.03342L84.9159 16.1691C85.0865 16.4677 85.3044 16.6636 85.5702 16.7567C85.8356 16.8498 86.1392 16.8218 86.4805 16.6727C86.765 16.5237 86.9642 16.323 87.078 16.0711C87.1918 15.8193 87.1726 15.5443 87.0211 15.2457L80.9615 2.29026ZM103.408 1.47878C103.047 1.47878 102.753 1.58634 102.526 1.80056C102.298 2.01523 102.184 2.29986 102.184 2.65402V10.7966C102.184 11.5429 101.975 12.2145 101.558 12.8113C101.141 13.4085 100.577 13.8746 99.8657 14.2104C99.1544 14.5461 98.353 14.714 97.4617 14.714C96.5323 14.714 95.6979 14.537 94.9582 14.1824C94.2186 13.8282 93.6354 13.287 93.2086 12.5595C92.7819 11.8319 92.5685 10.9085 92.5685 9.78929V2.65402C92.5685 2.31823 92.4547 2.03841 92.2271 1.81456C91.9996 1.59072 91.7053 1.47878 91.3452 1.47878C91.0038 1.47878 90.7193 1.59072 90.4918 1.81456C90.2642 2.03841 90.1504 2.31823 90.1504 2.65402V9.78929C90.1504 11.3379 90.4535 12.6434 91.0608 13.7067C91.6675 14.77 92.4974 15.5771 93.55 16.1271C94.6026 16.6775 95.7926 16.9525 97.1203 16.9525C98.3721 16.9525 99.5003 16.6824 100.506 16.1411C101.156 15.7914 101.709 15.353 102.184 14.8433V15.5815C102.184 15.936 102.298 16.225 102.526 16.4489C102.753 16.6727 103.047 16.7847 103.408 16.7847C103.768 16.7847 104.062 16.6727 104.289 16.4489C104.517 16.225 104.631 15.936 104.631 15.5815V2.65402C104.631 2.29986 104.517 2.01523 104.289 1.80056C104.062 1.58634 103.768 1.47878 103.408 1.47878ZM119.395 2.30423C118.333 1.66067 117.072 1.33887 115.612 1.33887C114.132 1.33887 112.828 1.67465 111.7 2.34621C110.571 3.01778 109.685 3.93679 109.04 5.1024C108.395 6.26843 108.073 7.61636 108.073 9.14571C108.073 10.6567 108.414 11.9998 109.097 13.1751C109.78 14.3503 110.718 15.2693 111.913 15.9312C113.108 16.5936 114.483 16.9246 116.038 16.9246C116.93 16.9246 117.854 16.7567 118.812 16.4209C119.77 16.0851 120.571 15.6562 121.216 15.1337C121.462 14.9287 121.581 14.6817 121.572 14.3923C121.562 14.1033 121.425 13.8374 121.159 13.5948C120.95 13.4269 120.699 13.3478 120.405 13.3569C120.111 13.3666 119.851 13.4645 119.623 13.6507C119.225 13.9865 118.689 14.2663 118.016 14.4902C117.342 14.714 116.683 14.826 116.038 14.826C114.919 14.826 113.928 14.5789 113.066 14.0844C112.202 13.5904 111.524 12.9188 111.031 12.0698C110.659 11.4284 110.428 10.7146 110.337 9.9292H121.614C121.937 9.9292 122.202 9.83127 122.411 9.6354C122.619 9.43953 122.724 9.18331 122.724 8.8659C122.724 7.41087 122.435 6.11452 121.856 4.97647C121.277 3.83885 120.457 2.94782 119.395 2.30423ZM110.388 7.99847C110.489 7.35439 110.668 6.75371 110.946 6.20765C111.382 5.34985 111.999 4.67348 112.795 4.17901C113.592 3.68494 114.531 3.43749 115.612 3.43749C116.636 3.43749 117.513 3.67096 118.243 4.13703C118.973 4.60353 119.538 5.24711 119.936 6.06776C120.222 6.6578 120.401 7.30278 120.482 7.99847H110.388ZM137.844 2.33221C136.659 1.67027 135.308 1.33887 133.79 1.33887C132.254 1.33887 130.893 1.67027 129.708 2.33221C128.523 2.9946 127.589 3.91319 126.906 5.0884C126.223 6.26361 125.882 7.61636 125.882 9.14571C125.882 10.6567 126.204 11.9998 126.849 13.1751C127.493 14.3503 128.385 15.2693 129.523 15.9312C130.661 16.5936 131.97 16.9246 133.449 16.9246C134.758 16.9246 135.924 16.6124 136.948 15.9872C137.927 15.3901 138.701 14.5647 139.281 13.5243V14.8539C139.281 16.0668 139.039 17.1204 138.556 18.0158C138.072 18.9113 137.418 19.5968 136.593 20.0725C135.768 20.5482 134.852 20.786 133.847 20.786C132.747 20.786 131.78 20.5902 130.946 20.1984C130.111 19.8067 129.428 19.2842 128.897 18.6315C128.707 18.37 128.451 18.2117 128.129 18.1558C127.806 18.0998 127.503 18.1649 127.219 18.3516C126.953 18.5195 126.801 18.7477 126.764 19.0372C126.725 19.3262 126.811 19.6012 127.02 19.8626C127.797 20.8324 128.759 21.5879 129.907 22.1291C131.054 22.67 132.349 22.9406 133.79 22.9406C135.327 22.9406 136.682 22.586 137.859 21.8773C139.034 21.1681 139.964 20.2124 140.647 19.0092C141.329 17.806 141.671 16.4585 141.671 14.9659V9.14571C141.652 7.61636 141.305 6.26361 140.632 5.0884C139.959 3.91319 139.029 2.9946 137.844 2.33221ZM138.584 12.0698C138.119 12.9188 137.47 13.5808 136.635 14.0565C135.801 14.5322 134.852 14.77 133.79 14.77C132.709 14.77 131.751 14.5322 130.917 14.0565C130.082 13.5808 129.428 12.9188 128.954 12.0698C128.48 11.2212 128.243 10.2466 128.243 9.14571C128.243 8.04525 128.48 7.06591 128.954 6.20765C129.428 5.34985 130.082 4.68266 130.917 4.20699C131.751 3.73129 132.709 3.49345 133.79 3.49345C134.852 3.49345 135.801 3.73129 136.635 4.20699C137.47 4.68266 138.119 5.34985 138.584 6.20765C139.049 7.06591 139.281 8.04525 139.281 9.14571C139.281 10.2466 139.049 11.2212 138.584 12.0698ZM158.953 2.13634C158.868 1.84737 158.683 1.6375 158.399 1.50676C158.076 1.37647 157.768 1.36687 157.474 1.47878C157.18 1.59072 156.966 1.79619 156.834 2.09439L151.98 12.9609L146.592 2.12237C146.44 1.80539 146.232 1.60034 145.966 1.50676C145.701 1.41365 145.407 1.43243 145.084 1.56274C144.781 1.71225 144.572 1.92212 144.459 2.19232C144.345 2.46295 144.363 2.74758 144.516 3.04575L150.826 15.5428L149.997 17.3997C149.503 18.5002 148.968 19.3396 148.389 19.9181C147.811 20.4961 147.218 20.7947 146.611 20.8135C146.365 20.8135 146.142 20.7855 145.943 20.7296C145.744 20.6736 145.54 20.58 145.331 20.4497C145.008 20.2818 144.7 20.2163 144.407 20.2539C144.112 20.291 143.871 20.4401 143.681 20.7016C143.454 20.9814 143.392 21.2796 143.496 21.597C143.601 21.9139 143.823 22.175 144.165 22.3805C144.544 22.5855 144.928 22.7442 145.317 22.8561C145.705 22.9681 146.09 23.0144 146.469 22.996C147.588 22.996 148.631 22.5667 149.599 21.7089C150.566 20.8506 151.362 19.7222 151.988 18.3231L158.854 3.04575C159.005 2.72877 159.039 2.42577 158.953 2.13634Z" fill="white"/>
</g>
<defs>
<clipPath id="clip0">
<rect width="159" height="23" fill="white"/>
</clipPath>
</defs>
</svg>
