<svg width="159" height="23" viewBox="0 0 159 23" fill="none" xmlns="http://www.w3.org/2000/svg">
<g clip-path="url(#clip0)">
<path d="M14.6708 22.8182C14.3587 22.8182 14.0561 22.817 13.7068 22.8158C10.466 22.8058 0 21.5597 0 5.95344C0 4.4669 0.767612 2.97016 2.10621 1.84746C3.88747 0.353315 6.34119 -0.278145 8.8372 0.114692C11.6063 0.550333 13.477 1.74745 14.5558 2.67033C15.6341 1.74765 17.5048 0.550534 20.2743 0.114692C22.7697 -0.279545 25.224 0.353315 27.0053 1.84746C28.3439 2.97036 29.1115 4.4669 29.1115 5.95344C29.1115 21.5297 18.6567 22.7982 15.4523 22.8158C15.1678 22.8174 14.9163 22.8182 14.6708 22.8182ZM7.41768 2.2975C5.98677 2.2975 4.61848 2.75494 3.61927 3.59302C2.80123 4.27929 2.33191 5.13957 2.33191 5.95344C2.33191 19.0699 10.2689 20.5112 13.6814 20.522C14.3307 20.524 14.8002 20.5252 15.4393 20.522C18.8489 20.5032 26.7796 19.0455 26.7796 5.95344C26.7796 5.13957 26.3103 4.27929 25.4923 3.59302C24.2498 2.55092 22.4358 2.09828 20.6428 2.37971C17.7116 2.84115 16.055 4.36769 15.5328 4.93015C15.3183 5.25418 14.9508 5.451 14.5558 5.451C14.5547 5.451 14.5537 5.451 14.5525 5.451C14.1584 5.45 13.7926 5.25318 13.5787 4.93015C13.0555 4.36649 11.3993 2.84095 8.46875 2.37971C8.11758 2.3245 7.7658 2.2975 7.41768 2.2975Z" fill="black"/>
<path d="M17.1618 15.348C16.2002 15.348 15.2667 14.9771 14.5072 14.2959C13.4753 15.2216 12.1222 15.5748 10.8135 15.202C9.12317 14.7211 7.9873 13.1598 7.9873 11.3172C7.9873 8.52193 11.0287 6.1853 12.8457 4.78937C13.2296 4.49434 13.5924 4.21572 13.741 4.0673C13.9444 3.86488 14.2181 3.75107 14.5158 3.75987C14.8017 3.76047 15.0743 3.87069 15.2718 4.0669C15.2722 4.0671 15.2724 4.0675 15.2724 4.0675C15.4219 4.21632 15.784 4.49454 16.1677 4.78917C17.9852 6.1853 21.0274 8.52193 21.0274 11.3172C21.0274 13.1598 19.8915 14.7211 18.2011 15.202C17.8554 15.3004 17.5067 15.348 17.1618 15.348ZM14.5066 6.00629C14.3746 6.1097 14.2307 6.22031 14.0761 6.33892C12.6467 7.43702 9.98615 9.48102 9.98615 11.3172C9.98615 12.5001 10.7312 13.1318 11.3691 13.3134C12.2168 13.553 13.0682 13.1638 13.6465 12.2673C13.824 11.9865 14.1382 11.802 14.4755 11.7936C14.8287 11.772 15.1654 11.9492 15.3531 12.2437C15.9428 13.1622 16.7946 13.5554 17.6456 13.3134C18.2835 13.1318 19.0285 12.5001 19.0285 11.3172C19.0285 9.48142 16.3672 7.43722 14.9375 6.33892C14.7828 6.22031 14.6388 6.1097 14.5066 6.00629Z" fill="black"/>
<path d="M47.805 2.33221C46.6195 1.67027 45.2682 1.33887 43.7511 1.33887C42.2148 1.33887 40.8537 1.67027 39.6687 2.33221C38.4831 2.9946 37.5492 3.91319 36.8664 5.0884C36.1837 6.26361 35.8423 7.61636 35.8423 9.14571C35.8423 10.6567 36.1646 11.9998 36.8096 13.1751C37.4541 14.3503 38.3458 15.2693 39.4837 15.9312C40.6217 16.5936 41.9303 16.9246 43.4097 16.9246C44.7183 16.9246 45.8847 16.6124 46.9089 15.9872C47.8877 15.3901 48.6612 14.5647 49.2417 13.5243V14.8539C49.2417 16.0668 48.9999 17.1204 48.5162 18.0158C48.0326 18.9113 47.3783 19.5968 46.5533 20.0725C45.7283 20.5482 44.813 20.786 43.808 20.786C42.7078 20.786 41.7405 20.5902 40.9062 20.1984C40.0714 19.8067 39.3886 19.2842 38.8579 18.6315C38.6681 18.37 38.412 18.2117 38.0897 18.1558C37.767 18.0998 37.4639 18.1649 37.1794 18.3516C36.9136 18.5195 36.762 18.7477 36.7242 19.0372C36.686 19.3262 36.7713 19.6012 36.9802 19.8626C37.7577 20.8324 38.7201 21.5879 39.8678 22.1291C41.0151 22.67 42.3095 22.9406 43.7511 22.9406C45.2873 22.9406 46.6431 22.586 47.8192 21.8773C48.995 21.1681 49.9245 20.2124 50.6072 19.0092C51.29 17.806 51.6314 16.4585 51.6314 14.9659V9.14571C51.6123 7.61636 51.266 6.26361 50.593 5.0884C49.9196 3.91319 48.9901 2.9946 47.805 2.33221ZM48.3185 11.8473C47.8535 12.6963 47.2041 13.3583 46.3698 13.834C45.5349 14.3096 44.813 14.77 43.7511 14.77C42.67 14.77 41.7121 14.5322 40.8777 14.0565C40.0429 13.5808 39.3886 12.9188 38.9148 12.0698C38.4405 11.2212 38.2035 10.2466 38.2035 9.14571C38.2035 8.04525 38.4405 7.06591 38.9148 6.20765C39.3886 5.34985 40.0429 4.68266 40.8777 4.20699C41.7121 3.73129 42.67 3.49345 43.7511 3.49345C44.813 3.49345 45.7612 3.73129 46.5959 4.20699C47.4303 4.68266 48.0798 5.34985 48.5447 6.20765C49.0092 7.06591 49.0155 7.82273 49.0155 8.92321C49.0155 10.0241 48.783 10.9987 48.3185 11.8473ZM66.6807 2.30423C65.6183 1.66067 64.3572 1.33887 62.897 1.33887C61.4177 1.33887 60.1134 1.67465 58.9853 2.34621C57.8567 3.01778 56.9699 3.93679 56.3253 5.1024C55.6803 6.26843 55.3581 7.61636 55.3581 9.14571C55.3581 10.6567 55.6994 11.9998 56.3822 13.1751C57.065 14.3503 58.0038 15.2693 59.1987 15.9312C60.3935 16.5936 61.7684 16.9246 63.3237 16.9246C64.215 16.9246 65.1396 16.7567 66.0975 16.4209C67.055 16.0851 67.8564 15.6562 68.5014 15.1337C68.7477 14.9287 68.8664 14.6817 68.857 14.3923C68.8473 14.1033 68.7099 13.8374 68.4445 13.5948C68.2356 13.4269 67.9845 13.3478 67.6906 13.3569C67.3964 13.3666 67.1359 13.4645 66.9083 13.6507C66.51 13.9865 65.9739 14.2663 65.3009 14.4902C64.6275 14.714 63.9683 14.826 63.3237 14.826C62.2044 14.826 61.2136 14.5789 60.3508 14.0844C59.4876 13.5904 58.8097 12.9188 58.3167 12.0698C57.9438 11.4284 57.7131 10.7146 57.6222 9.9292H68.8997C69.222 9.9292 69.4874 9.83127 69.6963 9.6354C69.9048 9.43953 70.0092 9.18331 70.0092 8.8659C70.0092 7.41087 69.7199 6.11452 69.1415 4.97647C68.5628 3.83885 67.7426 2.94782 66.6807 2.30423ZM57.6737 7.99847C57.7746 7.35439 57.9537 6.75371 58.2314 6.20765C58.6675 5.34985 59.284 4.67348 60.0806 4.17901C60.8771 3.68494 61.816 3.43749 62.897 3.43749C63.9212 3.43749 64.7982 3.67096 65.5285 4.13703C66.2584 4.60353 66.8229 5.24711 67.2212 6.06776C67.5074 6.6578 67.6867 7.30278 67.7673 7.99847H57.6737ZM80.962 2.29026C80.8482 2.01043 80.6868 1.80539 80.4783 1.67465C80.2694 1.54436 80.0418 1.47878 79.7955 1.47878C79.2835 1.47878 78.9039 1.74943 78.6576 2.29026L72.5411 15.2457C72.3891 15.5443 72.3748 15.8149 72.4984 16.0572C72.6216 16.2998 72.8256 16.4957 73.1101 16.6448C73.4323 16.7939 73.7404 16.8218 74.0347 16.7287C74.3285 16.6356 74.5512 16.4397 74.7032 16.1411L79.8593 5.03342L84.9164 16.1691C85.087 16.4677 85.3049 16.6636 85.5707 16.7567C85.836 16.8498 86.1397 16.8218 86.481 16.6727C86.7655 16.5237 86.9647 16.323 87.0785 16.0711C87.1922 15.8193 87.1731 15.5443 87.0215 15.2457L80.962 2.29026ZM103.408 1.47878C103.048 1.47878 102.754 1.58634 102.526 1.80056C102.299 2.01523 102.185 2.29986 102.185 2.65402V10.7966C102.185 11.5429 101.976 12.2145 101.559 12.8113C101.141 13.4085 100.577 13.8746 99.8662 14.2104C99.1549 14.5461 98.3535 14.714 97.4622 14.714C96.5327 14.714 95.6984 14.537 94.9587 14.1824C94.2191 13.8282 93.6358 13.287 93.2091 12.5595C92.7824 11.8319 92.569 10.9085 92.569 9.78929V2.65402C92.569 2.31823 92.4552 2.03841 92.2276 1.81456C92 1.59072 91.7058 1.47878 91.3457 1.47878C91.0043 1.47878 90.7198 1.59072 90.4922 1.81456C90.2647 2.03841 90.1509 2.31823 90.1509 2.65402V9.78929C90.1509 11.3379 90.454 12.6434 91.0612 13.7067C91.668 14.77 92.4979 15.5771 93.5505 16.1271C94.6031 16.6775 95.7931 16.9525 97.1208 16.9525C98.3726 16.9525 99.5008 16.6824 100.506 16.1411C101.156 15.7914 101.709 15.353 102.185 14.8433V15.5815C102.185 15.936 102.299 16.225 102.526 16.4489C102.754 16.6727 103.048 16.7847 103.408 16.7847C103.768 16.7847 104.062 16.6727 104.29 16.4489C104.518 16.225 104.631 15.936 104.631 15.5815V2.65402C104.631 2.29986 104.518 2.01523 104.29 1.80056C104.062 1.58634 103.768 1.47878 103.408 1.47878ZM119.396 2.30423C118.334 1.66067 117.072 1.33887 115.612 1.33887C114.133 1.33887 112.829 1.67465 111.7 2.34621C110.572 3.01778 109.685 3.93679 109.04 5.1024C108.396 6.26843 108.073 7.61636 108.073 9.14571C108.073 10.6567 108.415 11.9998 109.097 13.1751C109.78 14.3503 110.719 15.2693 111.914 15.9312C113.109 16.5936 114.484 16.9246 116.039 16.9246C116.93 16.9246 117.855 16.7567 118.813 16.4209C119.77 16.0851 120.572 15.6562 121.217 15.1337C121.463 14.9287 121.582 14.6817 121.572 14.3923C121.562 14.1033 121.425 13.8374 121.16 13.5948C120.951 13.4269 120.7 13.3478 120.406 13.3569C120.112 13.3666 119.851 13.4645 119.623 13.6507C119.225 13.9865 118.689 14.2663 118.016 14.4902C117.343 14.714 116.683 14.826 116.039 14.826C114.92 14.826 113.929 14.5789 113.066 14.0844C112.203 13.5904 111.525 12.9188 111.032 12.0698C110.659 11.4284 110.428 10.7146 110.337 9.9292H121.615C121.937 9.9292 122.203 9.83127 122.411 9.6354C122.62 9.43953 122.724 9.18331 122.724 8.8659C122.724 7.41087 122.435 6.11452 121.857 4.97647C121.278 3.83885 120.458 2.94782 119.396 2.30423ZM110.389 7.99847C110.49 7.35439 110.669 6.75371 110.947 6.20765C111.383 5.34985 111.999 4.67348 112.796 4.17901C113.592 3.68494 114.531 3.43749 115.612 3.43749C116.636 3.43749 117.513 3.67096 118.244 4.13703C118.974 4.60353 119.538 5.24711 119.936 6.06776C120.223 6.6578 120.402 7.30278 120.482 7.99847H110.389ZM137.845 2.33221C136.659 1.67027 135.308 1.33887 133.791 1.33887C132.255 1.33887 130.894 1.67027 129.709 2.33221C128.523 2.9946 127.589 3.91319 126.906 5.0884C126.224 6.26361 125.882 7.61636 125.882 9.14571C125.882 10.6567 126.204 11.9998 126.849 13.1751C127.494 14.3503 128.386 15.2693 129.524 15.9312C130.662 16.5936 131.97 16.9246 133.45 16.9246C134.758 16.9246 135.925 16.6124 136.949 15.9872C137.928 15.3901 138.701 14.5647 139.282 13.5243V14.8539C139.282 16.0668 139.04 17.1204 138.556 18.0158C138.072 18.9113 137.418 19.5968 136.593 20.0725C135.768 20.5482 134.853 20.786 133.848 20.786C132.748 20.786 131.78 20.5902 130.946 20.1984C130.111 19.8067 129.428 19.2842 128.898 18.6315C128.708 18.37 128.452 18.2117 128.13 18.1558C127.807 18.0998 127.504 18.1649 127.219 18.3516C126.953 18.5195 126.802 18.7477 126.764 19.0372C126.726 19.3262 126.811 19.6012 127.02 19.8626C127.798 20.8324 128.76 21.5879 129.908 22.1291C131.055 22.67 132.349 22.9406 133.791 22.9406C135.327 22.9406 136.683 22.586 137.859 21.8773C139.035 21.1681 139.964 20.2124 140.647 19.0092C141.33 17.806 141.671 16.4585 141.671 14.9659V9.14571C141.652 7.61636 141.306 6.26361 140.633 5.0884C139.959 3.91319 139.03 2.9946 137.845 2.33221ZM138.585 12.0698C138.12 12.9188 137.47 13.5808 136.636 14.0565C135.801 14.5322 134.853 14.77 133.791 14.77C132.71 14.77 131.752 14.5322 130.918 14.0565C130.083 13.5808 129.428 12.9188 128.955 12.0698C128.48 11.2212 128.243 10.2466 128.243 9.14571C128.243 8.04525 128.48 7.06591 128.955 6.20765C129.428 5.34985 130.083 4.68266 130.918 4.20699C131.752 3.73129 132.71 3.49345 133.791 3.49345C134.853 3.49345 135.801 3.73129 136.636 4.20699C137.47 4.68266 138.12 5.34985 138.585 6.20765C139.049 7.06591 139.282 8.04525 139.282 9.14571C139.282 10.2466 139.049 11.2212 138.585 12.0698ZM158.954 2.13634C158.868 1.84737 158.684 1.6375 158.399 1.50676C158.076 1.37647 157.768 1.36687 157.474 1.47878C157.18 1.59072 156.967 1.79619 156.834 2.09439L151.98 12.9609L146.593 2.12237C146.441 1.80539 146.232 1.60034 145.967 1.50676C145.701 1.41365 145.407 1.43243 145.085 1.56274C144.781 1.71225 144.573 1.92212 144.459 2.19232C144.345 2.46295 144.364 2.74758 144.516 3.04575L150.827 15.5428L149.997 17.3997C149.504 18.5002 148.968 19.3396 148.39 19.9181C147.811 20.4961 147.219 20.7947 146.612 20.8135C146.365 20.8135 146.142 20.7855 145.943 20.7296C145.744 20.6736 145.54 20.58 145.332 20.4497C145.009 20.2818 144.701 20.2163 144.407 20.2539C144.113 20.291 143.871 20.4401 143.682 20.7016C143.454 20.9814 143.393 21.2796 143.497 21.597C143.601 21.9139 143.824 22.175 144.165 22.3805C144.544 22.5855 144.929 22.7442 145.317 22.8561C145.706 22.9681 146.09 23.0144 146.47 22.996C147.588 22.996 148.632 22.5667 149.599 21.7089C150.566 20.8506 151.363 19.7222 151.989 18.3231L158.854 3.04575C159.006 2.72877 159.039 2.42577 158.954 2.13634Z" fill="black"/>
</g>
<defs>
<clipPath id="clip0">
<rect width="159" height="23" fill="white"/>
</clipPath>
</defs>
</svg>
