<svg width="39" height="39" viewBox="0 0 39 39" fill="none" xmlns="http://www.w3.org/2000/svg">
<g clip-path="url(#clip0)">
<path d="M12.7213 32.7971C13.2711 33.3469 14.1367 33.3469 14.6866 32.7971C15.2178 32.2659 15.2178 31.3817 14.6866 30.8517L4.72171 20.8868L37.6043 20.8868C38.3709 20.8868 38.9999 20.2776 38.9999 19.5111C38.9999 18.7445 38.3709 18.1155 37.6043 18.1155L4.72171 18.1155L14.6866 8.16918C15.2178 7.61936 15.2178 6.73395 14.6866 6.20395C14.1367 5.65413 13.2711 5.65413 12.7213 6.20395L0.397458 18.5278C-0.133786 19.0591 -0.133786 19.9432 0.397457 20.4732L12.7213 32.7971Z" fill="#1E201D"/>
</g>
<defs>
<clipPath id="clip0">
<rect width="39" height="39" transform="matrix(1 8.74228e-08 8.74228e-08 -1 0 39)" fill="white"/>
</clipPath>
</defs>
</svg>
