<svg width="39" height="39" viewBox="0 0 39 39" fill="none" xmlns="http://www.w3.org/2000/svg">
<g clip-path="url(#clip0)">
<path d="M26.2787 32.7971C25.7289 33.3469 24.8633 33.3469 24.3134 32.7971C23.7822 32.2659 23.7822 31.3817 24.3134 30.8517L34.2783 20.8868L1.39565 20.8868C0.629125 20.8868 5.45363e-05 20.2776 5.46033e-05 19.511C5.46703e-05 18.7445 0.629125 18.1154 1.39565 18.1154L34.2783 18.1155L24.3134 8.16917C23.7822 7.61936 23.7822 6.73395 24.3134 6.20394C24.8633 5.65412 25.7289 5.65412 26.2787 6.20394L38.6025 18.5278C39.1338 19.0591 39.1338 19.9432 38.6025 20.4732L26.2787 32.7971Z" fill="#1E201D"/>
</g>
<defs>
<clipPath id="clip0">
<rect x="39" y="39" width="39" height="39" transform="rotate(-180 39 39)" fill="white"/>
</clipPath>
</defs>
</svg>
