<svg width="15" height="15" viewBox="0 0 15 15" fill="none" xmlns="http://www.w3.org/2000/svg">
<g clip-path="url(#clip0)">
<path d="M7.62401 3.47595L14.224 10.0759C14.4585 10.3105 14.4585 10.6897 14.224 10.9243C13.9894 11.1589 13.6102 11.1589 13.3756 10.9243L7.19984 4.74854L1.0241 10.9243C0.789509 11.1589 0.410302 11.1589 0.175714 10.9243C0.0587149 10.8073 -9.34548e-05 10.6537 -9.34529e-05 10.5001C-9.34511e-05 10.3465 0.0587149 10.1929 0.175715 10.0759L6.77566 3.47592C7.01022 3.24136 7.38943 3.24136 7.62401 3.47595Z" fill="black"/>
</g>
<defs>
<clipPath id="clip0">
<rect width="14.4" height="14.4" fill="white" transform="matrix(1.19249e-08 -1 -1 -1.19249e-08 14.3999 14.4)"/>
</clipPath>
</defs>
</svg>
